<svg width="24" height="24" viewBox="0 0 24 24" fill="none" xmlns="http://www.w3.org/2000/svg">
<g clip-path="url(#clip0_3003_44564)">
<path d="M9.00021 12C9.00021 10.3432 10.3433 9.00018 12 9.00018C13.6568 9.00018 14.9998 10.3432 14.9998 12C14.9998 13.6567 13.6568 14.9998 12 14.9998C10.3433 14.9998 9.00021 13.6567 9.00021 12Z" fill="#684747"/>
<path fill-rule="evenodd" clip-rule="evenodd" d="M12 3.48633C6.56582 3.48633 1.91693 6.84125 0.0785884 11.5802C-0.0261962 11.8503 -0.0261961 12.1498 0.0785886 12.4199C1.91694 17.1588 6.56582 20.5137 12 20.5137C17.4342 20.5137 22.0831 17.1588 23.9214 12.4199C24.0262 12.1498 24.0262 11.8503 23.9214 11.5802C22.0831 6.84126 17.4342 3.48633 12 3.48633ZM12 6.75018C9.10062 6.75018 6.75021 9.1006 6.75021 12C6.75021 14.8994 9.10062 17.2498 12 17.2498C14.8994 17.2498 17.2498 14.8994 17.2498 12C17.2498 9.1006 14.8994 6.75018 12 6.75018Z" fill="#684747"/>
</g>
<defs>
<clipPath id="clip0_3003_44564">
<rect width="24" height="24" fill="white"/>
</clipPath>
</defs>
</svg>
