<svg width="24" height="24" viewBox="0 0 24 24" fill="none" xmlns="http://www.w3.org/2000/svg">
<path d="M22.7925 9.86026C23.0386 9.21526 22.7152 8.49288 22.0702 8.24677C21.4252 8.00067 20.7028 8.32403 20.4567 8.96903C19.1539 12.3836 15.856 14.8026 11.9999 14.8026C8.14383 14.8026 4.84599 12.3836 3.54312 8.96903C3.29701 8.32403 2.57463 8.00067 1.92963 8.24677C1.28463 8.49288 0.961267 9.21526 1.20737 9.86026C1.61841 10.9375 2.18561 11.9378 2.88131 12.8331L1.46481 14.3379C0.991633 14.8406 1.01555 15.6317 1.51824 16.1049C2.02093 16.5781 2.81202 16.5541 3.2852 16.0515L4.62066 14.6327C5.5346 15.3942 6.56775 16.0171 7.68811 16.4692L6.99307 18.1682C6.73168 18.8071 7.03775 19.537 7.67671 19.7984C8.31567 20.0598 9.04555 19.7537 9.30694 19.1147L10.1113 17.1486C10.7258 17.2499 11.3567 17.3026 11.9999 17.3026C12.6432 17.3026 13.2742 17.2499 13.8887 17.1486L14.6931 19.1147C14.9545 19.7537 15.6843 20.0598 16.3233 19.7984C16.9622 19.537 17.2683 18.8071 17.0069 18.1682L16.3119 16.4691C17.4323 16.017 18.4656 15.394 19.3796 14.6324L20.7136 16.051C21.1865 16.5539 21.9776 16.5782 22.4805 16.1053C22.9834 15.6324 23.0077 14.8413 22.5348 14.3384L21.1189 12.8326C21.8144 11.9375 22.3815 10.9373 22.7925 9.86026Z" fill="#684747"/>
</svg>
